<?xml version="1.0" standalone="no"?>
<!DOCTYPE svg PUBLIC "-//W3C//DTD SVG 20010904//EN"
 "http://www.w3.org/TR/2001/REC-SVG-20010904/DTD/svg10.dtd">
<svg version="1.0" xmlns="http://www.w3.org/2000/svg"
 width="270.000000pt" height="270.000000pt" viewBox="0 0 270.000000 270.000000"
 preserveAspectRatio="xMidYMid meet">
<metadata>
Created by potrace 1.11, written by Peter Selinger 2001-2013
</metadata>
<g transform="translate(0.000000,270.000000) scale(0.100000,-0.100000)"
fill="#000000" stroke="none">
<path d="M150 1647 c248 -103 379 -277 331 -443 l-8 -30 146 4 c231 7 422 -31
541 -108 73 -47 154 -139 176 -200 l18 -51 30 63 c59 126 184 217 363 265 89
24 116 26 295 27 l198 1 -7 35 c-12 59 -6 125 16 176 41 93 174 204 310 261
l56 23 -421 0 -420 0 -17 -53 c-23 -71 -59 -105 -136 -122 -68 -16 -142 -22
-158 -12 -6 4 -13 29 -17 57 -4 28 -10 60 -15 73 -7 19 -9 17 -16 -20 l-7 -43
-48 0 c-49 0 -60 9 -60 51 0 10 -4 19 -9 19 -9 0 -21 -48 -21 -84 0 -61 -45
-71 -180 -40 -59 13 -74 21 -96 50 -14 18 -32 53 -39 76 l-12 43 -424 2 -424
3 55 -23z"/>
</g>
</svg>
